<?xml version="1.0" standalone="no"?>
<!DOCTYPE svg PUBLIC "-//W3C//DTD SVG 20010904//EN"
 "http://www.w3.org/TR/2001/REC-SVG-20010904/DTD/svg10.dtd">
<svg version="1.0" xmlns="http://www.w3.org/2000/svg"
 width="129.000000pt" height="49.000000pt" viewBox="0 0 129.000000 49.000000"
 preserveAspectRatio="xMidYMid meet">

<g transform="translate(0.000000,49.000000) scale(0.100000,-0.100000)"
fill="#000000" stroke="none">
<path d="M100 375 c19 -21 33 -25 76 -25 65 0 84 -7 84 -31 0 -27 -31 -39
-104 -39 l-66 0 0 -85 0 -85 100 0 c94 0 103 2 125 25 15 14 25 36 25 53 0 30
-26 62 -50 62 -7 0 -1 11 14 25 33 30 34 68 1 100 -22 23 -31 25 -126 25
l-102 0 23 -25z m161 -161 c22 -26 -1 -49 -55 -52 l-46 -3 0 35 c0 36 0 36 44
36 28 0 48 -6 57 -16z"/>
<path d="M1220 255 l0 -145 30 0 30 0 0 145 0 145 -30 0 -30 0 0 -145z"/>
<path d="M846 323 c-3 -4 -24 -6 -46 -5 l-40 3 0 -106 0 -105 30 0 30 0 0 80
c0 65 3 82 16 87 35 13 49 -10 52 -91 l3 -76 29 0 30 0 0 90 c0 77 -3 93 -20
110 -19 19 -69 27 -84 13z"/>
<path d="M1033 320 c-35 -14 -57 -57 -57 -113 0 -43 4 -53 32 -78 37 -33 85
-38 132 -14 26 13 50 42 50 59 0 13 -58 5 -64 -9 -7 -18 -57 -20 -74 -3 -29
29 -13 38 63 38 83 0 87 4 64 69 -18 51 -86 75 -146 51z m79 -47 c28 -25 22
-33 -27 -33 -48 0 -62 19 -27 39 24 14 33 13 54 -6z"/>
<path d="M370 214 l0 -104 30 0 30 0 0 71 c0 69 1 71 30 82 20 8 30 18 30 33
0 19 -6 21 -60 22 l-60 1 0 -105z"/>
<path d="M520 230 c0 -78 3 -93 21 -111 17 -17 29 -20 57 -15 21 3 54 6 75 6
l37 -1 0 106 0 105 -30 0 -30 0 0 -79 c0 -71 -2 -80 -20 -86 -37 -12 -50 11
-50 91 l0 74 -30 0 -30 0 0 -90z"/>
</g>
</svg>
